# xmcd
#
# Track frame offsets:
# 150
# 16907
# 44011
# 61338
# 89320
# 107525
# 134154
#
# Disc length: 2290 seconds
#
#
# Revision: 0
# Processed by: cddbd v1.4PL0 Copyright (c) Steve Scherf et al.
# Submitted via: FreeRIP 2.12 
#
DISCID=5c08f007
DTITLE=Neil Young - Acoustic token
DYEAR=1990
DGENRE=Rock
TTITLE0=On the way home
TTITLE1=Broken arrow
TTITLE2=I am a child
TTITLE3=Helpless
TTITLE4=Dance dance dance
TTITLE5=Sugar mountain
TTITLE6=Don't let it bring you down
EXTD=
EXTT0=
EXTT1=
EXTT2=
EXTT3=
EXTT4=
EXTT5=
EXTT6=
PLAYORDER=
